<svg id="Layer_1" data-name="Layer 1" xmlns="http://www.w3.org/2000/svg" viewBox="0 0 164.34 165.22"><defs><style>.cls-1{fill:#f2ebbd;}</style></defs><path class="cls-1" d="M340.2,302.17l-35.84-35.91-1.28-1.46s9.71-10,27.52-6.17c0,0,10.65.74,7.87,8,0,0-3.63,7.57,1.69,12.29,0,0,12.69-15.45-1-30.43S297.88,208,297.88,208l-2.48,1.78-39.78,39.91s-12,12.77-1.41,28.32l37.57,38.1s-11.54,12.18-29.84,6.18c0,0-6.17-.69-5.12-6.7,0,0,3.05-9.14-1.44-13.14,0,0-10.9,11.5-2.41,25.88l45.56,44.89,40.92-41.16S353.73,318,340.2,302.17Zm-47.11-76.09c2.43-9.38,6.27-6.6,6.27-6.6L330,249.73a3.38,3.38,0,0,1-2,.42l-8.28.31c-8.28,0-20.06,8.17-20.06,8.17-2.21,1.59-4.28-2.18-4.28-2.18C286,244.45,293.09,226.08,293.09,226.08Zm4.79,136.72-1.11,1.3L264.62,331s.55-.7,2.06-.45c0,0,17,1.44,25.1-4.84,0,0,6.22-4.36,7.73-1.75C299.51,324,313.34,343.3,297.88,362.8ZM336.48,324l-23.77,25-.85.5c4-19.54-11.67-34.88-11.67-34.88L262.6,276.7c-9.79-9.51-4.11-19.54-4.11-19.54l25.07-25.23c-4.55,19.39,14.06,37.82,14.06,37.82L330,302.09C345.24,314.11,336.48,324,336.48,324Z" transform="translate(-215.47 -208.04)"/><path class="cls-1" d="M238.83,266.6,216,289.23s-1.58,1.35.65,3.52L239,315s.9-12.95-12.12-22.23c0,0-3.46-2,.81-5C227.65,287.76,241.59,277.12,238.83,266.6Z" transform="translate(-215.47 -208.04)"/><path class="cls-1" d="M356.45,266.48l22.82,22.64s1.57,1.35-.66,3.51l-22.3,22.27s-.89-12.95,12.13-22.23c0,0,3.45-2-.81-5C367.63,287.65,353.68,277,356.45,266.48Z" transform="translate(-215.47 -208.04)"/></svg>